<?xml version="1.0" encoding="utf-8"?>
<!-- Generator: Adobe Illustrator 22.1.0, SVG Export Plug-In . SVG Version: 6.00 Build 0)  -->
<svg version="1.1" id="Layer_1" xmlns="http://www.w3.org/2000/svg" xmlns:xlink="http://www.w3.org/1999/xlink" x="0px" y="0px"
	 viewBox="0 0 75.7 84.2" style="enable-background:new 0 0 75.7 84.2;" xml:space="preserve">
<style type="text/css">
	.st0{fill:#FFFFFF;}
</style>
<g>
	<g>
		<g>
			<path class="st0" d="M38.2,80.5c-0.3,0-0.6-0.1-0.9-0.2L5.4,61.7c-0.5-0.3-0.9-0.9-0.9-1.5V23.3c0-0.6,0.3-1.2,0.9-1.5
				c0.5-0.3,1.2-0.3,1.8,0L39,40.3c0.5,0.3,0.9,0.9,0.9,1.5l0.1,36.9c0,0.6-0.3,1.2-0.9,1.5C38.8,80.4,38.5,80.5,38.2,80.5z
				 M8.1,59.2l28.4,16.5l0-32.9L8.1,26.4V59.2z"/>
		</g>
		<g>
			<path class="st0" d="M54.1,71.2H22.2c-1,0-1.7-0.8-1.7-1.7V32.6c0-1,0.8-1.7,1.7-1.7h31.9c1,0,1.7,0.8,1.7,1.7v36.9
				C55.9,70.4,55.1,71.2,54.1,71.2z M24,67.7h28.4V34.3H24V67.7z"/>
		</g>
		<g>
			<path class="st0" d="M38.2,80.5c-0.3,0-0.6-0.1-0.9-0.2c-0.5-0.3-0.9-0.9-0.9-1.5l-0.1-36.9c0-0.6,0.3-1.2,0.9-1.5l31.9-18.5
				c0.5-0.3,1.2-0.3,1.8,0c0.5,0.3,0.9,0.9,0.9,1.5v36.8c0,0.6-0.3,1.2-0.9,1.5L39.1,80.2C38.8,80.4,38.5,80.5,38.2,80.5z
				 M39.9,42.8l0,32.9l28.4-16.5V26.4L39.9,42.8z M70,60.2L70,60.2L70,60.2z"/>
		</g>
		<g>
			<path class="st0" d="M38.2,64c-0.2,0-0.3,0-0.5-0.1c-0.5-0.1-0.8-0.4-1.1-0.9L20.7,33.4c-0.4-0.8-0.2-1.9,0.7-2.3l31.5-18.1
				c0.4-0.2,1.3-0.2,1.8-0.1c0.5,0.1,1.5,1.1,1.7,1.5l15.2,28.5c0.4,0.8,0.1,1.9-0.7,2.3L39.1,63.8C38.8,63.9,38.5,64,38.2,64z
				 M24.6,33.2l14.3,26.6l28.8-16.8L53.6,16.5L24.6,33.2z"/>
		</g>
		<g>
			<path class="st0" d="M38.1,43.6c-0.3,0-0.6-0.1-0.9-0.2L5.4,24.9c-0.5-0.3-0.9-0.9-0.9-1.5c0-0.6,0.3-1.2,0.9-1.5L37.3,3.4
				c0.5-0.3,1.2-0.3,1.8,0l31.9,18.5c0.5,0.3,0.9,0.9,0.9,1.5c0,0.6-0.3,1.2-0.9,1.5L39,43.3C38.7,43.5,38.4,43.6,38.1,43.6z
				 M9.8,23.4l28.3,16.4l28.4-16.4L38.2,6.9L9.8,23.4z"/>
		</g>
		<g>
			<line class="st0" x1="70.1" y1="23.3" x2="38.1" y2="41.8"/>
		</g>
	</g>
</g>
</svg>
